<?xml version="1.0" standalone="no"?><!DOCTYPE svg PUBLIC "-//W3C//DTD SVG 1.1//EN" "http://www.w3.org/Graphics/SVG/1.1/DTD/svg11.dtd"><svg t="1769611159245" class="icon" viewBox="0 0 1591 1024" version="1.1" xmlns="http://www.w3.org/2000/svg" p-id="8746" xmlns:xlink="http://www.w3.org/1999/xlink" width="310.7421875" height="200"><path d="M1591.962275 971.56447a52.43553 52.43553 0 0 1-52.43553 52.43553H52.450831A52.420229 52.420229 0 0 1 0.030601 971.56447V52.420275A52.420229 52.420229 0 0 1 52.420229 0.000046h1487.091215a52.389628 52.389628 0 0 1 37.073618 15.300709 52.43553 52.43553 0 0 1 15.300709 37.058317z m0 0" fill="#eeeeee" p-id="8747"></path><path d="M145.050722 160.320875h114.020884v58.968933H145.050722z m0 146.779703h114.020884v58.984233H145.050722z m0 146.795002h114.020884v58.968933H145.050722z m0 0M1380.965497 358.648666c1.851386 1.055749 3.641569 2.172701 5.416451 3.381457l5.416451 3.65687 0.107105 6.502801c0.290713 18.850474-1.958491 34.809113-6.915921 47.064981-4.590213 11.246021-11.261322 19.64611-20.304041 24.725946-6.120284 21.941217-13.326918 42.245258-23.593693 59.305548-11.735644 19.661411-27.265864 34.793812-49.237682 42.841986-9.807755 3.595667-34.870316 5.263444-58.999534 4.911527-23.257078-0.351916-46.621261-2.647023-55.89349-6.931221-19.890922-9.180425-33.967574-24.634142-44.586267-43.851832-9.103922-16.432962-15.591423-35.574149-21.267985-55.771085-9.348733-4.865625-16.356458-13.219813-21.053776-24.481134-5.18694-12.362973-7.512648-28.597025-7.206634-47.814716l0.076504-6.533403 5.416451-3.626268c1.346462-0.948644 2.738827-1.820784 4.161793-2.631722-6.120284-75.508999-3.809877-103.432793 24.221022-135.334772 54.669433-44.785175 180.028143-43.224503 235.43201-2.616421 37.792751 35.635351 40.409173 75.570202 28.811236 137.201458z m-114.908326 218.387021l0.795637 17.320402-10.220873 16.907284 14.260261 93.823948 58.571114-125.833031 89.141931-3.060142c46.039834 43.545818 75.570202 146.167674 68.302365 213.077674H990.062981c1.239357-58.754723 12.041658-159.127374 70.566871-210.18584l80.542932 0.749735 75.417195 124.455967 14.275562-93.028311-10.266776-16.907284 0.795637-17.320402a312.731193 312.731193 0 0 1 44.800476 0zM1332.844767 331.872425c-35.451743 6.931221-88.177986 12.990302-129.841818-10.435083-16.050444-9.042719-39.537032 9.455838-58.739422 7.55855a143.627756 143.627756 0 0 0-12.975001 38.374179l-2.1574 11.322524-11.399028-1.101651a16.279954 16.279954 0 0 0-6.625207 0.826238 26.256017 26.256017 0 0 0-3.060142 1.224057c0.275413 12.546581 2.050295 22.951064 5.309346 30.754425 2.861233 6.854718 6.824116 11.322525 12.041658 12.9444l6.655809 2.080897 1.820784 6.68641c5.60006 20.701859 11.842749 40.225564 20.640656 56.1077 8.170579 14.765184 18.605662 26.500828 33.049532 33.141336 6.120284 2.784729 25.429778 4.360702 45.657316 4.666716 21.497496 0.321315 42.964391-0.826238 50.048619-3.427359 15.943339-5.921374 27.418871-17.289801 36.308583-32.131489 9.562943-16.035143 16.40236-36.354485 22.384937-58.647618l1.698379-6.365095 6.334493-2.218603c5.003332-1.774882 8.889712-6.334494 11.689742-13.265714 3.060142-7.726858 4.835024-17.978333 5.141038-30.295404a22.951064 22.951064 0 0 0-2.784729-1.116952 17.886529 17.886529 0 0 0-6.4722-0.979246l-11.108314 0.719134-2.034995-10.924706a144.882414 144.882414 0 0 0-11.582636-35.497646zM301.010849 160.320875h343.378513v58.968933H301.010849z m0 146.779703h343.378513v58.984233H301.010849z m0 146.795002h343.378513v58.968933H301.010849z m182.154942 384.047798h516.38363v58.999534H483.165791z m0 0M145.050722 837.897476h302.75513v58.999534H145.050722z" fill="#999999" p-id="8748"></path></svg>