<?xml version="1.0" standalone="no"?><!DOCTYPE svg PUBLIC "-//W3C//DTD SVG 1.1//EN" "http://www.w3.org/Graphics/SVG/1.1/DTD/svg11.dtd"><svg t="1769611236527" class="icon" viewBox="0 0 1585 1024" version="1.1" xmlns="http://www.w3.org/2000/svg" p-id="8317" xmlns:xlink="http://www.w3.org/1999/xlink" width="309.5703125" height="200"><path d="M1585.691611 971.512862a52.322696 52.322696 0 0 1-52.322695 52.487138H52.322696a52.472189 52.472189 0 0 1-52.322696-52.487138V52.247949A52.487138 52.487138 0 0 1 52.322696 0h1481.120967a52.21805 52.21805 0 0 1 36.909924 15.397822 52.322696 52.322696 0 0 1 15.21843 36.984671v919.130369z m0 0" fill="#F7F7F7" p-id="8318"></path><path d="M595.940553 269.895413h791.627434v-58.392128H595.940553z m0 174.234576h791.627434v-58.302432H595.940553z m-433.381413 417.385617H505.063506v-58.302432H162.55914z m406.622092 0h818.386755v-58.302432H569.196181z m-131.614004-449.003474a63.295512 63.295512 0 0 1-19.434144 44.773278 63.325411 63.325411 0 0 1-45.490846 17.729919h-132.750154a63.489854 63.489854 0 0 1-45.431049-17.759818 63.445006 63.445006 0 0 1-19.434144-44.743379v-1.37534a63.370259 63.370259 0 0 1 64.865193-61.75573h132.750154a63.385208 63.385208 0 0 1 64.880142 61.381997z m0 0" fill="#cccccc" p-id="8319"></path><path d="M150.061491 286.474233a162.514292 162.514292 0 0 0 162.499343 162.544191 162.514292 162.514292 0 0 0 162.514292-162.544191A162.514292 162.514292 0 0 0 312.560834 124.004788a162.55914 162.55914 0 0 0-114.825893 47.598704 162.469444 162.469444 0 0 0-47.67345 114.870741z m0 0" fill="#cccccc" p-id="8320"></path><path d="M175.071739 286.474233a137.533943 137.533943 0 0 0 84.882362 127.069403 137.533943 137.533943 0 0 0 149.837251-29.808987 137.533943 137.533943 0 0 0 29.808987-149.8522 137.533943 137.533943 0 0 0-127.069404-84.867412 137.533943 137.533943 0 0 0-137.533942 137.533943z m0 0" fill="#cccccc" p-id="8321"></path><path d="M321.321148 191.007737l-10.464539-4.99308-10.628982 4.99308 2.152705-10.673829-8.62577-7.609215 11.750183-1.629479 5.381763-9.627376 5.247219 9.627376 11.869777 1.629479-8.685568 7.609215z m-73.999241 14.500862l-8.506175-4.006424-8.491226 4.006424 1.614529-8.506176-6.876697-6.12923 9.507781-1.240795 4.126018-7.803556 4.126018 7.758708 9.492832 1.240795-6.861747 6.12923z m147.744343 0l-8.491226-4.006424-8.506175 4.006424 1.629478-8.506176-6.876697-6.12923 9.492832-1.240795 4.126018-7.803556 4.140968 7.683961 9.507781 1.240796-6.876697 6.12923z m-44.997518 31.004934l-8.506175-4.126018-8.371632 4.126018 1.494934-8.62577-6.876697-6.12923 9.507782-1.255745 4.126018-7.863353 4.290461 7.743759 9.388186 1.255744-6.876697 6.12923z m-62.503197 0l-8.491226-4.126018-8.371632 4.126018 1.494935-8.62577-6.876698-6.12923 9.492832-1.255745 4.126019-7.863353 4.260562 7.743759 9.373237 1.255744-6.876697 6.12923z m-87.498497 112.493796h212.489942l-7.026191-24.995299H210.69602z m0 0" fill="#EDEDED" p-id="8322"></path></svg>